<svg width="47" height="56" viewBox="0 0 47 56" fill="none" xmlns="http://www.w3.org/2000/svg">
<path d="M1.65084 22.8644C1.65084 21.0772 1.95511 17.7388 2.3154 14.9455C2.54321 15.1298 2.93457 15.4112 3.39596 15.4916L3.4062 15.4934L3.41646 15.495C4.32932 15.6389 5.57471 16.0134 6.93657 16.427L6.93702 16.4272L6.99635 16.4452C8.14111 16.7925 9.36553 17.1639 10.3588 17.3519L10.3593 17.352C17.0713 18.6192 24.0312 19.3396 30.8969 19.3396C31.9549 19.3396 33.5636 19.1971 35.0879 18.8481C35.6597 18.7171 36.2397 18.5526 36.7856 18.3466C36.6192 19.5705 36.3564 20.8452 36.0851 22.1513C35.9389 22.8537 35.7924 23.5618 35.6633 24.2561L35.6633 24.2561L35.6615 24.266C35.4255 25.5933 35.1592 26.7619 34.8826 27.9721C34.641 29.0062 34.4167 30.0444 34.2097 31.086L34.208 31.095L34.2063 31.104C33.8421 33.0839 33.4168 35.0521 32.9877 37.038L32.974 37.1014L32.974 37.1015L32.9561 37.1841C32.4896 39.3425 32.018 41.5241 31.6287 43.7182L31.6286 43.7186C31.2507 45.853 30.6709 47.9743 30.0724 50.1603L30.0724 50.1605L30.0309 50.312C29.9166 50.7297 29.8012 51.1512 29.6879 51.5723L29.6858 51.5802L29.6837 51.5882C29.6443 51.7423 29.6069 51.8969 29.5714 52.052C29.4881 52.4081 29.404 52.7642 29.3037 53.0718C29.2736 53.1642 29.2451 53.2424 29.2189 53.3069C29.0854 53.323 28.9206 53.3323 28.7038 53.3431C28.6917 53.3437 28.6792 53.3444 28.6664 53.345C28.4551 53.3553 28.1455 53.3703 27.8787 53.4208L27.8696 53.4225L27.8606 53.4244C26.2386 53.7556 24.809 53.9739 23.2044 53.9739C16.5679 53.9739 9.82675 53.5056 3.48025 51.9262C3.47382 51.9171 3.4664 51.9062 3.45803 51.893C3.37468 51.762 3.29633 51.5653 3.219 51.3184L3.21423 51.3032L3.2091 51.2881C2.93275 50.4766 2.75141 49.607 2.55207 48.6391C2.42529 47.993 2.28137 47.3505 2.12048 46.712L2.11708 46.6986L2.11339 46.6852C1.62379 44.9056 1.59554 43.0708 1.57123 41.0323L1.57123 41.0316L1.57106 41.0183C1.56169 40.2645 1.55197 39.482 1.51432 38.6963L1.51412 38.6924C1.3474 35.4251 1.44117 32.1626 1.53671 28.8451L1.53672 28.845L1.53698 28.8358C1.5936 26.8603 1.65084 24.8632 1.65084 22.8644ZM3.51016 51.9629C3.51014 51.9631 3.50875 51.9618 3.50602 51.9589C3.50881 51.9613 3.51017 51.9628 3.51016 51.9629Z" fill="#FF58FC" stroke="#1E0B37" stroke-width="2.5746"/>
<path d="M3.59971 9.56368L3.59972 9.5637L3.60484 9.56063C4.21581 9.19394 5.0434 8.95624 5.99824 8.7801C6.58502 8.67185 7.12279 8.60048 7.65931 8.52929C8.04052 8.4787 8.4211 8.42819 8.81816 8.3646L8.81817 8.36464L8.82612 8.3633C10.0752 8.15255 11.4324 8.2675 12.8926 8.48862C13.3389 8.5562 13.8042 8.63574 14.2779 8.7167C15.291 8.88987 16.3421 9.06954 17.3266 9.15266C21.6091 9.52322 26.1723 10.1267 30.2094 11.3512L30.2109 11.3517C30.7676 11.5195 31.3847 11.6659 31.9912 11.8098L32.0248 11.8177C32.6532 11.9668 33.2791 12.1159 33.8864 12.294C35.1236 12.6569 36.1367 13.102 36.7874 13.7529L36.7875 13.753C37.6494 14.6149 37.584 15.035 37.5425 15.1603C37.4656 15.3921 37.1356 15.7497 36.3022 16.1114C34.7064 16.8039 32.2542 17.0861 30.896 17.0861C24.185 17.0861 17.3656 16.3817 10.7767 15.1377C9.90387 14.972 8.77623 14.6301 7.56741 14.2636C7.50318 14.2441 7.43873 14.2246 7.37406 14.205C6.16922 13.84 4.88567 13.4561 3.85498 13.2834C3.84146 13.275 3.82312 13.2629 3.79979 13.246C3.70786 13.1795 3.58388 13.072 3.4461 12.9247C3.168 12.6272 2.89044 12.2285 2.72064 11.8048C2.55113 11.3817 2.51181 10.9952 2.60571 10.6638C2.69419 10.3515 2.93804 9.95525 3.59971 9.56368Z" fill="#FBF81E" stroke="#1E0B37" stroke-width="1.93095"/>
<path d="M5.29014 26.6605C5.64482 25.3895 10.4046 26.4535 12.149 26.5722C16.4651 26.8675 20.8701 26.8675 25.0973 27.9025C26.6056 28.2869 28.4383 28.2869 29.739 29.2329C30.685 29.9422 30.1234 31.4796 29.9751 32.4553C29.5617 35.145 29.1773 37.865 28.4383 40.5258C27.8766 42.5655 27.5807 45.0785 27.344 47.1775C27.2556 47.9165 27.137 49.5719 26.6056 50.1039C26.3393 50.3703 25.1566 50.4296 24.7722 50.5179C22.7325 51.0209 20.6335 50.9913 18.5344 50.8139C15.4894 50.5773 12.6216 50.8139 9.69523 50.0743C8.51255 49.7789 7.68454 49.8382 6.8275 48.9806C5.9995 48.1532 5.85182 45.8472 5.67448 44.7831C5.46748 43.4528 5.37849 42.0928 5.3198 40.7624C5.02382 36.2393 4.87614 28.1089 5.29014 26.6605Z" fill="#FBF81E"/>
<path d="M1.60239 11.2774C1.74313 12.77 3.12777 14.1382 3.61687 14.2234C4.63799 14.3843 5.98098 14.7914 7.31071 15.1953C8.49655 15.555 9.67103 15.9116 10.5981 16.087C17.2398 17.341 24.1195 18.0523 30.8969 18.0523C32.8325 18.0523 36.9447 17.5203 38.176 15.976L38.2511 15.9854C38.2511 18.0516 37.7904 20.2712 37.3455 22.4132C37.199 23.1168 37.0552 23.8123 36.9289 24.4914C36.6866 25.8545 36.4133 27.0524 36.1369 28.2616C35.8983 29.2829 35.6767 30.3082 35.4724 31.3369C35.1 33.3608 34.6652 35.3696 34.2322 37.3734C33.7589 39.5633 33.2856 41.7488 32.8962 43.9431C32.5062 46.1456 31.9098 48.3242 31.314 50.5002C31.1859 50.9685 31.0572 51.438 30.9309 51.9069C30.894 52.0516 30.8588 52.1968 30.8256 52.3424C30.6634 53.0353 30.4406 53.9902 30.084 54.3467C29.8322 54.5752 29.2724 54.6036 28.7682 54.6288C28.5252 54.6408 28.2948 54.6522 28.1181 54.6856C26.4583 55.0245 24.933 55.2612 23.2044 55.2612C16.4945 55.2612 9.61549 54.7872 3.10883 53.1603C2.46511 53.0246 2.16029 52.2452 1.99052 51.7031C1.68317 50.8006 1.4869 49.8489 1.29 48.8928C1.16733 48.2671 1.02801 47.6449 0.872209 47.0266C0.331355 45.0608 0.308005 43.0589 0.284023 41.0476C0.274556 40.2859 0.265089 39.5216 0.228486 38.758C0.0587192 35.4308 0.154646 32.1169 0.249943 28.8081C0.306742 26.8264 0.363541 24.8448 0.363541 22.8644C0.363541 20.1197 1.04198 13.9861 1.58409 11.2749L1.60302 11.2774H1.60239Z" stroke="#1E0B37" stroke-width="0.25244" stroke-miterlimit="2.854" stroke-linecap="round" stroke-linejoin="round"/>
<path d="M3.10801 8.7328C-0.21285 10.698 2.83663 14.087 3.61604 14.2227C5.54785 14.5275 8.63204 15.7134 10.5973 16.0864C17.239 17.3403 24.1186 18.0516 30.896 18.0516C33.7423 18.0516 41.2998 16.8998 37.4702 13.0703C35.8104 11.4099 32.6246 11.071 30.4896 10.4273C26.3553 9.1733 21.7123 8.56303 17.4088 8.19068C14.5959 7.95339 11.4783 6.93669 8.66549 7.41128C6.97098 7.68265 4.63275 7.8177 3.10801 8.7328Z" stroke="#1E0B37" stroke-width="0.25244" stroke-miterlimit="2.854" stroke-linecap="round" stroke-linejoin="round"/>
<path d="M5.29014 26.6605C5.64482 25.3895 10.4046 26.4535 12.149 26.5722C16.4651 26.8675 20.8701 26.8675 25.0973 27.9025C26.6056 28.2869 28.4383 28.2869 29.739 29.2329C30.685 29.9422 30.1234 31.4796 29.9751 32.4553C29.5617 35.145 29.1773 37.865 28.4383 40.5258C27.8766 42.5655 27.5807 45.0785 27.344 47.1775C27.2556 47.9165 27.137 49.5719 26.6056 50.1039C26.3393 50.3703 25.1566 50.4296 24.7722 50.5179C22.7325 51.0209 20.6335 50.9913 18.5344 50.8139C15.4894 50.5773 12.6216 50.8139 9.69523 50.0743C8.51255 49.7789 7.68454 49.8382 6.8275 48.9806C5.9995 48.1532 5.85182 45.8472 5.67448 44.7831C5.46748 43.4528 5.37849 42.0928 5.3198 40.7624C5.02382 36.2393 4.87614 28.1089 5.29014 26.6605Z" stroke="#1E0B37" stroke-width="1.93095" stroke-miterlimit="2.854" stroke-linecap="round" stroke-linejoin="round"/>
<path d="M45.9774 5.98845C46.7568 5.24249 47.145 1.82509 46.5536 1.14224L28.5925 0.26123M45.9774 5.98845L26.5679 0.329389C27.2421 0.28943 27.9171 0.266703 28.5925 0.26123M45.9774 5.98845C45.9257 6.03957 45.5628 6.01369 45.3463 5.99728M45.9774 5.98845L45.3463 5.99728M28.5925 0.26123L28.5609 0.904109L28.5794 0.905013M28.5925 0.26123L28.5977 0.90486C28.5916 0.90491 28.5855 0.904961 28.5794 0.905013M28.5794 0.905013L46.1296 1.76587C46.1513 1.86465 46.1693 1.98783 46.1811 2.13448C46.2115 2.51006 46.197 2.9808 46.1402 3.46707C46.0836 3.95259 45.9875 4.43027 45.8653 4.8199C45.7856 5.07399 45.7058 5.2541 45.6397 5.37143C45.5605 5.3677 45.4751 5.36154 45.3977 5.35568C45.3968 5.35561 45.3959 5.35554 45.395 5.35547L45.3463 5.99728M28.5794 0.905013L42.5368 5.15969M28.5794 0.905013C27.9211 0.910656 27.2631 0.932963 26.606 0.971912L26.601 0.972207L26.601 0.972187C25.9421 1.00614 25.2694 1.04057 24.5938 1.04057C24.5257 1.04057 24.433 1.03512 24.3534 1.03043C24.3437 1.02986 24.3341 1.02929 24.3249 1.02876L24.3235 1.02868C24.1441 1.01787 23.9514 1.00656 23.7894 1.0112C23.755 1.01218 23.7261 1.01382 23.7026 1.01574C22.8816 1.90578 22.6728 3.11768 22.6675 4.65069C22.6657 5.16659 22.6859 5.68552 22.7069 6.22666C22.7185 6.52413 22.7303 6.82831 22.7389 7.1424C22.7625 8.00675 22.7593 8.90931 22.6384 9.80019L28.5794 0.905013ZM45.3463 5.99728C45.297 5.99309 45.2475 5.99014 45.198 5.98845C44.3164 5.98845 43.2321 5.98845 42.3852 5.78523M42.3852 5.78523L42.5383 5.16006C42.5378 5.15994 42.5373 5.15981 42.5368 5.15969M42.3852 5.78523L42.5354 5.15935C42.5358 5.15946 42.5363 5.15957 42.5368 5.15969M42.3852 5.78523C39.6737 5.12107 36.7371 5.15725 33.8697 5.19257L33.8647 5.19263L33.8535 5.19278C33.2136 5.20093 32.5774 5.20904 31.9474 5.20904C31.363 5.20904 30.7862 5.26142 30.2194 5.31317M42.5368 5.15969C39.7462 4.47644 36.7417 4.51347 33.9041 4.54845L33.8568 4.54903L33.8565 4.54903L33.8474 4.54915C33.206 4.55732 32.5733 4.56539 31.9474 4.56539C31.3305 4.56539 30.7263 4.62056 30.165 4.67182L30.1614 4.67214L30.2194 5.31317M30.2194 5.31317L30.2137 5.31369C29.6647 5.36337 29.1245 5.41226 28.5925 5.41226C28.5306 5.41226 28.4019 5.39332 28.2498 5.3706L30.1609 4.67219M30.2194 5.31317L30.1609 4.67219M30.1609 4.67219C29.6075 4.72227 29.0974 4.76813 28.6003 4.7686M30.1609 4.67219L28.6003 4.7686M28.6003 4.7686C28.5986 4.76847 28.5963 4.76828 28.5932 4.768C28.5806 4.76684 28.5623 4.76479 28.537 4.76155C28.4858 4.75497 28.4223 4.74558 28.3449 4.73401L28.3426 4.73368L28.3244 4.73103C28.1598 4.70702 27.9389 4.6748 27.7443 4.66129C27.6447 4.65437 27.5262 4.65027 27.4125 4.66085C27.3555 4.66614 27.2809 4.67671 27.2015 4.70109C27.129 4.72339 27.0014 4.77241 26.8864 4.88592L26.8864 4.8859L26.8824 4.8899C26.7561 5.01675 26.7002 5.16778 26.6776 5.23227C26.6477 5.3181 26.6259 5.4091 26.6093 5.49234C26.5756 5.66042 26.5507 5.86016 26.5311 6.0585C26.4923 6.45317 26.4692 6.90695 26.4526 7.23076L26.452 7.24247L26.452 7.24273L26.4519 7.24508C26.4466 7.35104 26.442 7.44106 26.4378 7.51302C26.4357 7.54911 26.4338 7.57853 26.4321 7.60165L26.4298 7.62892C26.4295 7.63269 26.4292 7.63527 26.4291 7.63683C26.4289 7.63822 26.4288 7.63879 26.4289 7.63867L26.4286 7.64086C26.3211 8.54246 26.1646 9.44824 26.0038 10.3775L26.6379 10.4875M28.6003 4.7686L22.6384 9.80034C22.5064 10.7757 22.5019 11.9411 22.4973 13.1665C22.4965 13.3653 22.4958 13.5656 22.4944 13.7669C22.4872 14.8818 22.4631 16.0365 22.3018 17.0404C23.0772 17.1053 23.8532 17.1623 24.6291 17.2108C24.689 17.0122 24.7503 16.8141 24.8132 16.6165C25.1297 15.6089 25.4206 14.6699 25.5117 13.6889L25.5121 13.6846L25.5122 13.6846C25.6231 12.5715 25.8139 11.4717 25.9993 10.4035L26.0037 10.3778L26.6379 10.4875M28.6003 4.7686C28.6024 4.76876 28.6034 4.76882 28.6034 4.76882C28.6034 4.76882 28.5994 4.7686 28.5925 4.7686C28.5951 4.7686 28.5977 4.7686 28.6003 4.7686ZM26.6379 10.4875L26.6382 10.4862C26.7984 9.5602 26.958 8.63798 27.0677 7.71703L25.4269 16.8105C25.7405 15.8121 26.0542 14.8087 26.1526 13.7484C26.2613 12.6587 26.4487 11.5783 26.6353 10.5029L26.6379 10.4875ZM45.8221 5.37337C45.8237 5.37318 45.824 5.37319 45.8228 5.3733L45.8221 5.37337Z" fill="#FBF81E" stroke="#1E0B37" stroke-width="1.2873"/>
<path d="M25.1018 17.884C23.9091 17.8152 22.7163 17.7262 21.5254 17.619C22.0808 15.5035 21.6794 12.0861 22.0006 9.71382C22.4556 6.35953 21.1612 2.64363 23.3398 0.464444C23.4723 0.331913 24.0163 0.365362 24.3622 0.386188C24.46 0.391868 24.5414 0.396916 24.5938 0.396916C25.2502 0.396916 25.9065 0.363468 26.5679 0.329389C27.2421 0.28943 27.9171 0.266703 28.5925 0.26123L46.5536 1.14224C47.145 1.82509 46.7568 5.24249 45.9774 5.98845C45.9257 6.03957 45.5628 6.01369 45.3463 5.99728C45.297 5.99309 45.2475 5.99014 45.198 5.98845C44.3164 5.98845 43.2321 5.98845 42.3852 5.78523C39.6721 5.12069 36.7337 5.15729 33.8647 5.19263C33.221 5.20084 32.581 5.20904 31.9474 5.20904C31.363 5.20904 30.7862 5.26142 30.2194 5.31317C29.6685 5.36303 29.1264 5.41226 28.5925 5.41226C28.5306 5.41226 28.4019 5.39332 28.2498 5.3706C27.9033 5.32011 27.4331 5.25069 27.3385 5.3441C27.1851 5.49808 27.1283 6.61955 27.0949 7.27526C27.0841 7.48731 27.0759 7.65013 27.0677 7.71703C26.9579 8.63843 26.7982 9.5611 26.6379 10.4875C26.4505 11.568 26.2618 12.6535 26.1526 13.7484C26.0542 14.8087 25.7405 15.8121 25.4269 16.8105C25.3136 17.1666 25.2053 17.5243 25.1018 17.8834V17.884Z" stroke="#1E0B37" stroke-width="0.25244" stroke-miterlimit="2.854" stroke-linecap="round" stroke-linejoin="round"/>
</svg>
