<svg width="246" height="262" viewBox="0 0 246 262" fill="none" xmlns="http://www.w3.org/2000/svg">
<path d="M70.7634 114.002L70.7597 114.003C69.1965 114.281 67.1848 114.568 65.0187 114.877L64.8921 114.896C64.8919 114.896 64.8917 114.896 64.8915 114.896C58.4344 115.819 49.9857 117.036 42.749 119.166C39.1306 120.231 36.1053 121.444 33.8984 122.788C31.6359 124.166 30.8427 125.306 30.6074 125.97C29.6936 128.577 29.5465 131.88 29.9984 135.748C30.4475 139.592 31.4195 143.498 32.3763 147.233L32.3776 147.238C32.8877 149.237 33.1098 151.733 33.2894 153.751C33.2984 153.852 33.3073 153.952 33.3162 154.051L33.3164 154.053C33.5244 156.389 33.7157 158.448 34.0833 160.204C34.262 161.058 34.4549 161.695 34.6434 162.15C34.8026 162.535 34.9134 162.678 34.9198 162.687C37.2577 165.174 40.8173 166.424 45.4652 166.494C50.1159 166.564 55.1794 165.42 59.4309 163.895L59.4389 163.892C61.3147 163.222 63.2404 162.752 64.8234 162.366L64.9845 162.327C64.9849 162.327 64.9853 162.326 64.9857 162.326C66.6761 161.913 67.9859 161.588 69.1469 161.175L69.1647 161.169L69.1827 161.162C69.4457 161.071 70.4354 160.733 71.5153 160.49C72.0267 160.374 72.8152 160.22 73.6636 160.189C74.0834 160.174 74.7496 160.179 75.5103 160.342C76.2025 160.491 77.606 160.903 78.8079 162.184L74.562 166.167L78.808 162.184C83.5587 167.25 90.1532 170.492 97.9873 174.252L97.9895 174.253L98.137 174.324C101.636 176.005 105.364 177.796 108.91 179.855L108.914 179.857C130.512 192.424 152.305 204.939 175.541 204.939C181.793 204.939 189.4 203.988 196.199 201.54C203.04 199.078 208.451 195.335 211.356 190.167L211.359 190.161L211.363 190.155C212.842 187.539 213.501 183.923 214.263 179.243L214.264 179.236L214.303 178.996C214.48 177.921 214.666 176.786 214.872 175.688L214.872 175.687C216.636 166.289 216.638 156.995 216.621 146.731L216.621 146.722L216.621 143.998C216.621 138.265 216.238 132.535 215.838 126.569L215.836 126.537L215.836 126.534L215.834 126.511C215.617 123.285 215.395 119.99 215.24 116.675C214.359 97.9048 210.988 78.2645 206.397 59.9203C205.9 57.9327 205.463 55.8688 205.044 53.8931L205.001 53.6905L205 53.6867C203.504 46.599 202.168 40.7048 199.195 36.4816C191.138 25.0365 174.331 19.6722 160.614 22.1088L70.7634 114.002ZM70.7634 114.002C72.1317 113.758 73.5149 113.127 74.4945 112.641C75.6374 112.074 76.937 111.341 78.318 110.501C81.0895 108.816 84.4253 106.557 87.894 103.984C94.7501 98.8981 102.589 92.2405 107.685 85.9778L107.689 85.9731M70.7634 114.002L107.689 85.9731M107.689 85.9731C110.457 82.564 122.528 64.9626 130.705 52.9445C130.863 52.7147 131.045 52.4454 131.21 52.2016C131.303 52.0629 131.392 51.9324 131.467 51.8222L131.474 51.8121M107.689 85.9731L131.474 51.8121M131.474 51.8121C135.086 46.4827 139.951 39.3218 145.408 33.2181M131.474 51.8121L145.408 33.2181M148.283 51.3386L148.284 51.3368C154.285 40.9262 164.614 37.3301 174.092 38.6534C183.289 39.9373 192.17 45.9058 195.927 55.0703C201.8 69.3662 203.041 82.8761 204.29 96.4694L204.319 96.7786L204.319 96.7827L204.331 96.9062C204.644 100.292 204.958 103.682 205.34 107.155C205.864 111.906 206.673 116.687 207.52 121.672L207.521 121.673L207.565 121.934C208.964 130.181 210.461 138.999 210.461 147.95C210.461 157.628 208.95 163.563 205.061 171.861L205.053 171.877L205.046 171.892C204.78 172.452 204.542 173.006 204.262 173.658L204.247 173.693C204.246 173.694 204.246 173.695 204.245 173.696M148.283 51.3386L198.893 171.406L198.896 171.401L204.245 173.696M148.283 51.3386C147.673 52.3986 147.113 54.0265 146.725 55.1989C146.257 56.6122 145.747 58.2979 145.271 59.9558C144.375 63.0784 143.411 66.748 143.193 68.2489L143.193 68.2532C142.011 76.4316 142.191 85.0643 142.682 92.8521M148.283 51.3386L152.162 143.37M204.245 173.696C204.209 173.781 204.172 173.869 204.133 173.961C203.513 175.416 202.539 177.704 200.858 179.56C198.743 181.895 195.942 183.191 192.492 183.527L192.489 183.527C176.93 185.031 162.553 176.705 156.473 161.128M204.245 173.696L156.473 161.128M156.473 161.128C154.144 155.174 153.125 149.109 152.21 143.658M156.473 161.128L152.21 143.658M152.162 143.37L152.159 143.352C151.777 140.99 151.351 138.636 150.879 136.292C150.047 132.388 149.166 128.495 148.235 124.616L148.232 124.604L148.229 124.592L148.191 124.43C145.837 114.433 143.377 103.991 142.682 92.8521M152.162 143.37L152.165 143.389M152.162 143.37L152.165 143.389M142.682 92.8521L148.492 92.4896L142.683 92.8566C142.683 92.8551 142.682 92.8536 142.682 92.8521ZM152.165 143.389L152.21 143.658M152.165 143.389L152.21 143.658M145.408 33.2181C151.105 26.8463 156.396 22.8586 160.613 22.1089L145.408 33.2181Z" fill="#FF90FF" stroke="#1E0B37" stroke-width="11.6425"/>
<path d="M69.7412 108.271C73.6165 107.58 93.882 93.7177 103.17 82.3036C105.736 79.1431 117.61 61.8426 125.901 49.656C126.147 49.2999 126.395 48.9281 126.655 48.5458C133.826 37.967 146.94 18.6267 159.595 16.3774C175.072 13.628 194.345 19.4803 203.955 33.1306C207.747 38.5169 209.262 45.6916 210.696 52.484C211.133 54.5474 211.56 56.5742 212.044 58.5066C216.703 77.1242 220.151 97.1558 221.055 116.402C221.207 119.657 221.426 122.901 221.644 126.145C222.042 132.089 222.442 138.026 222.442 143.998V146.693V146.722C222.459 156.902 222.474 166.74 220.593 176.761C220.387 177.861 220.2 179.01 220.009 180.178C219.289 184.598 218.518 189.327 216.43 193.02C208.744 206.693 189.055 210.76 175.541 210.76C150.455 210.76 127.274 197.275 105.987 184.889C102.622 182.936 99.0491 181.221 95.4685 179.5C87.8357 175.837 80.1883 172.166 74.562 166.167C74.0782 165.651 71.4897 166.523 71.0993 166.659C69.6061 167.191 67.9951 167.583 66.3669 167.981C64.6944 168.39 63.0024 168.801 61.3963 169.374C52.0518 172.726 38.2672 174.768 30.664 166.659C28.3801 164.224 27.9208 159.091 27.5181 154.569C27.3167 152.317 27.1301 150.217 26.7371 148.678C24.8388 141.267 22.4542 131.623 25.1163 124.037C28.5839 114.202 51.3028 110.958 64.0682 109.133C66.3227 108.811 68.2677 108.533 69.7412 108.271Z" stroke="#1E0B37" stroke-width="0.905366" stroke-linecap="round" stroke-linejoin="round"/>
<path d="M67.7416 173.635L67.751 173.633C67.8039 173.62 67.8573 173.607 67.911 173.594C69.2901 173.257 70.926 172.857 72.5245 172.323C75.0011 174.588 77.6824 176.499 80.4125 178.178C81.1054 194.811 82.33 215.099 83.5684 224.345L83.5686 224.347C83.752 225.712 84.0937 227.358 84.4076 228.87L84.434 228.997L84.4343 228.998C84.9254 231.362 85.3997 233.674 85.617 235.716C85.7114 236.604 85.7432 237.323 85.7259 237.881C85.5499 237.951 85.3584 238.022 85.1553 238.091C84.7918 238.214 84.4379 238.317 84.1365 238.398L84.1338 238.399C83.0246 238.697 81.9184 239.008 80.8156 239.332C77.0659 240.417 74.404 241.155 71.0864 241.155C70.1501 241.155 69.1792 241.197 68.3361 241.234L68.2206 241.239L68.2143 241.239C66.1873 241.33 64.7963 241.351 63.7962 241.241C63.7482 241.1 63.6971 240.938 63.6437 240.754C63.2031 239.235 62.927 237.371 62.6837 235.669C62.6306 235.281 62.5741 234.894 62.5144 234.508L62.5126 234.497C61.1859 226.023 54.7057 197.41 50.2162 177.908C55.0075 177.42 59.5915 176.203 63.3602 174.852C64.6273 174.399 66.0236 174.052 67.7416 173.635ZM64.1193 242.021C64.148 242.062 64.1474 242.068 64.1212 242.024C64.1206 242.023 64.1199 242.022 64.1193 242.021Z" fill="#FBF81E" stroke="#1E0B37" stroke-width="11.6425"/>
<path d="M42.918 172.173C49.2 172.789 56.0321 171.296 61.3981 169.371C63.0018 168.798 64.6963 168.384 66.3687 167.978C67.9969 167.58 69.6104 167.188 71.1011 166.656C71.4916 166.52 74.08 165.648 74.5638 166.164C77.8546 169.672 81.8355 172.383 86.1013 174.763C86.7644 191.932 88.0611 214.038 89.3381 223.572C89.4928 224.724 89.7973 226.193 90.1338 227.814C91.0916 232.422 92.2925 238.22 90.9589 241.064C90.2197 242.632 87.1966 243.604 85.647 244.02C84.5765 244.308 83.509 244.608 82.4446 244.921C78.7338 245.994 75.3349 246.976 71.0864 246.976C70.2587 246.976 69.3771 247.015 68.4733 247.055C65.8284 247.173 62.9821 247.298 60.6884 246.484C58.2203 245.607 57.3853 239.741 56.9187 236.476C56.8694 236.116 56.817 235.756 56.7615 235.397C55.3052 226.096 47.3065 191.134 42.918 172.173Z" stroke="#1E0B37" stroke-width="0.905366" stroke-linecap="round" stroke-linejoin="round"/>
<path d="M88.4492 212.94C92.494 212.94 97.0937 212.793 99.0486 211.746C104.525 208.826 113.766 196.624 113.766 189.504" stroke="#1E0B37" stroke-width="7.22366" stroke-linecap="round" stroke-linejoin="round"/>
<path d="M190.547 57.2737C184.8 43.2569 162.686 38.0094 153.331 54.2389C152.3 56.03 149.255 67.0172 148.96 69.0806C147.862 76.6638 148.012 84.8257 148.496 92.4849C149.414 107.235 153.604 120.817 156.583 135.106C158.263 143.174 158.874 151.268 161.895 159.003C167.018 172.122 178.931 178.985 191.932 177.725C197.237 177.209 197.777 173.64 199.791 169.385C203.349 161.799 204.644 156.704 204.644 147.945C204.644 134.486 201.029 121.137 199.558 107.787C197.573 89.814 197.46 74.1082 190.545 57.2737H190.547Z" fill="#A6FE5A"/>
<path d="M158.633 146.576L162.282 145.311C163.928 144.738 165.151 144.313 165.401 144.238C168.503 143.295 173.795 141.575 175.109 138.079C178.154 129.964 177.089 119.589 176.15 110.417C175.934 108.388 175.742 106.357 175.573 104.324C174.959 96.5571 173.53 84.6428 166.56 80.1835C163.95 78.5365 160.733 79.1047 157.852 79.6127C157.177 79.7331 156.519 79.8483 155.892 79.9321C155.296 80.0107 151.786 80.558 148.139 81.1262C148.115 84.9492 148.269 88.7722 148.503 92.4827C149.166 103.114 151.523 113.135 153.906 123.25C154.829 127.175 155.757 131.111 156.59 135.104C157.098 137.542 157.506 139.985 157.916 142.418C158.149 143.805 158.383 145.193 158.633 146.576Z" fill="#FBF81E" stroke="#1E0B37" stroke-width="11.6425" stroke-linecap="round" stroke-linejoin="round"/>
</svg>
