<svg width="247" height="246" viewBox="0 0 247 246" fill="none" xmlns="http://www.w3.org/2000/svg">
<path fill-rule="evenodd" clip-rule="evenodd" d="M71.0217 31.8436C71.3877 28.7639 72.8833 16.1631 75.7197 13.8374C79.5901 10.6571 97.1346 10.9936 104.667 11.1409C105.784 11.1606 106.68 11.1777 107.28 11.1802C107.599 11.1802 107.957 11.1581 108.338 11.136C109.944 11.0402 111.924 10.9248 112.825 12.2804C113.667 13.5452 113.206 15.7038 112.835 17.4327C112.714 17.9976 112.604 18.5133 112.552 18.9431C111.995 23.3906 110.389 27.5729 108.78 31.7625C107.432 35.2793 106.079 38.7985 105.342 42.4871C105.215 42.9874 105.068 43.4823 104.9 43.9704C104.153 46.2961 102.874 50.2819 103.952 51.36C105.755 53.1602 112.687 53.1921 117.552 53.2167C119.149 53.224 120.524 53.2289 121.423 53.2977C126.516 53.6906 131.703 53.6464 136.855 53.6047C138.464 53.5899 140.067 53.5777 141.666 53.5777C141.885 53.5777 142.388 53.6513 143.014 53.7422C144.616 53.978 147.017 54.3291 147.491 53.8576C149.294 52.0501 150.257 49.14 151.175 46.3673C151.593 45.0952 152.003 43.855 152.482 42.7622C153.95 39.3363 156.106 36.1314 158.265 32.9241C160.07 30.2448 161.878 27.5581 163.29 24.7364C163.553 24.2182 163.862 23.2874 164.218 22.2216C165.043 19.751 166.116 16.5339 167.452 15.8659C168.398 15.3969 170.623 15.8119 171.897 16.0477L172.443 16.1459C177.603 16.9874 182.779 17.7276 187.968 18.366C188.695 18.4568 189.658 18.4937 190.719 18.533C193.737 18.6484 197.551 18.7957 199.064 20.3012C199.857 21.0993 199.034 24.1544 198.536 26.006C198.389 26.5463 198.271 26.9884 198.229 27.2364C196.926 34.9325 194.787 42.4634 191.849 49.695C191.775 49.8816 191.615 50.2451 191.402 50.7215C190.326 53.1332 187.929 58.5163 188.811 59.4029C189.643 60.2379 193.595 59.6239 196.416 59.1868C197.61 59.0026 198.602 58.8479 199.071 58.8479C204.619 58.8479 209.906 59.8155 215.213 60.788C218.76 61.4339 222.318 62.0847 225.967 62.4506C226.267 62.48 226.707 62.4997 227.24 62.5267C230.042 62.6667 235.381 62.9295 235.948 65.2208C236.677 68.1432 236.228 71.4291 235.801 74.5603C235.641 75.7317 235.484 76.881 235.393 77.9812C235.3 79.1183 235.314 80.5746 235.332 82.139C235.371 85.5968 235.415 89.5851 234.285 91.8444C233.345 93.7256 229.072 94.4918 226.154 95.0149C225.28 95.1721 224.528 95.3096 224.022 95.4447C217.5 97.2251 210.668 96.9746 203.894 96.7266C201.537 96.6382 199.184 96.5547 196.854 96.5547L196.124 96.5498C193.374 96.5252 186.932 96.4712 185.461 97.9422C184.97 98.4334 184.962 101.042 184.958 102.957C184.958 103.834 184.955 104.563 184.908 104.878C183.963 110.993 182.909 117.137 180.743 122.903C180.431 123.731 178.975 127.785 179.916 128.721C180.856 129.662 185.51 128.893 188.87 128.336C190.338 128.095 191.559 127.894 192.114 127.894C193.29 127.894 194.489 127.889 195.702 127.884C205.157 127.849 215.616 127.81 224.555 129.829C225.376 130.013 226.613 129.986 227.94 129.959C230.28 129.91 232.898 129.851 233.988 130.939C234.263 131.219 233.885 132.572 233.63 133.488C233.552 133.743 233.487 134.002 233.433 134.264C232.893 138.036 231.776 141.798 230.675 145.512C230.388 146.482 230.101 147.447 229.826 148.41C228.707 152.694 227.872 157.048 227.328 161.443C227.299 161.659 227.286 162.03 227.272 162.457C227.235 163.587 227.186 165.119 226.773 165.323C222.799 167.312 214.931 166.683 210.692 166.158C204.268 165.352 196.94 166.295 190.731 167.54C190.358 167.614 189.852 167.703 189.263 167.806C186.519 168.28 181.993 169.063 180.743 170.313C178.469 172.597 177.352 178.658 176.713 182.121C176.673 182.344 176.632 182.568 176.591 182.791C176.234 184.69 175.898 186.593 175.559 188.494C174.157 196.384 172.755 204.275 170.208 211.908C168.766 216.23 165.918 224.187 160.782 225.213C155.375 226.294 148.722 225.616 143.314 224.941C142.837 224.885 142.359 224.842 141.88 224.813C140.178 224.693 138.243 224.555 137.238 223.551C136.7 223.015 137.184 219.599 137.523 217.195C137.671 216.159 137.793 215.309 137.793 214.96C137.793 204.356 140.807 193.221 144.444 183.346C146.438 178.24 148.706 173.245 151.237 168.383C151.863 167.165 153.268 164.439 152.207 163.378C151.602 162.781 148.439 163.27 146.762 163.528C146.332 163.594 146.001 163.646 145.834 163.66C139.333 164.205 132.997 164.495 126.42 164.495C124.097 164.495 121.742 164.453 119.372 164.412C109.635 164.242 99.6199 164.068 90.3712 166.713C89.6443 166.922 88.7798 167.081 87.8687 167.251C85.6339 167.666 83.1314 168.127 81.7807 169.478C80.5037 170.755 79.9634 173.395 79.4624 175.856C79.1628 177.322 78.8779 178.727 78.4555 179.739C74.9069 188.246 71.3901 196.777 68.4677 205.525C68.3056 206.009 68.1386 206.537 67.9618 207.094C66.4956 211.718 64.3566 218.465 59.8772 219.958C57.6399 220.709 53.6885 219.425 50.5376 218.401C49.3245 218.008 48.2292 217.652 47.3966 217.468C46.1122 217.183 44.5061 216.984 42.787 216.77C38.2953 216.213 33.0079 215.557 30.4833 213.03C29.9308 212.48 31.6376 207.529 32.3841 205.368C32.5438 204.901 32.6616 204.567 32.6985 204.434C34.3021 198.828 36.3208 193.501 38.342 188.162C39.7418 184.473 41.1416 180.777 42.4064 176.983C42.6053 176.386 43.0719 175.35 43.6417 174.085C45.4221 170.134 48.2144 163.933 47.1167 161.732C45.9477 159.387 42.2099 159.208 39.4594 159.075C38.8689 159.054 38.2793 159.014 37.6912 158.957C36.8906 158.869 36.0777 158.785 35.255 158.697C30.3433 158.174 25.1222 157.616 20.5004 156.467C19.6949 156.263 18.7469 156.116 17.7572 155.961C15.2719 155.573 12.5263 155.143 11.0774 153.695C10.3013 152.921 11.0847 150.102 11.5783 148.326C11.738 147.749 11.8681 147.282 11.9025 147.034C12.0867 145.747 12.2144 144.429 12.3446 143.117C12.9462 136.916 13.5307 130.895 19.9478 129.291C28.6415 127.118 35.2599 127.056 44.0714 129.016C44.5233 129.117 45.0611 129.279 45.6383 129.453C48.1432 130.212 51.4217 131.202 52.1143 128.461C54.1575 120.29 56.2622 111.661 57.1045 103.23C57.1291 102.974 57.2003 102.549 57.2887 102.021C57.7062 99.5189 58.5166 94.649 56.8221 93.7943C55.5525 93.1558 53.4134 93.313 51.4389 93.4554C50.2282 93.5463 49.0813 93.6273 48.2316 93.5217C42.5228 92.8848 36.7796 92.6059 31.0359 92.6868C30.0732 92.6868 29.0516 92.7678 28.0398 92.8488C23.9312 93.1755 20.0092 93.4874 21.0554 88.2515C21.301 87.031 21.5269 85.6238 21.7676 84.1208C22.7499 78.0426 23.9901 70.3461 27.7107 66.6279C28.0054 66.3062 29.8718 66.3332 31.2643 66.3578C31.9126 66.3652 32.4578 66.375 32.6985 66.3455C35.1298 66.0435 37.5512 65.7168 39.9776 65.3877C42.4457 65.0513 44.9187 64.7149 47.3966 64.4079C49.295 64.1697 51.1983 64.0984 53.0991 64.0272C55.1767 63.9486 57.2543 63.87 59.3222 63.5729C59.4695 63.5532 59.8133 63.5901 60.2234 63.6318C61.0388 63.7178 62.1071 63.8307 62.36 63.5729C62.7898 63.1382 63.168 60.9402 63.4406 59.3489C63.5683 58.6072 63.6739 57.9982 63.75 57.755C64.4057 55.7633 65.113 53.7594 65.8227 51.7505C67.3085 47.5486 68.7992 43.3295 69.8257 39.1767C70.0934 38.1231 70.2359 37.0008 70.3783 35.8687C70.5207 34.739 70.6656 33.5995 70.9358 32.5165C70.9456 32.4722 70.9751 32.2365 71.0217 31.8436ZM109.48 92.6868C109.48 92.5419 110.575 88.1312 111.003 89.2167C116.97 88.5315 126.032 90.0222 138.041 92.0409C138.351 92.0949 139.139 92.1465 140.129 92.2128C142.602 92.3749 146.327 92.618 146.912 93.1878C147.717 93.9712 145.129 102.078 144.719 103.372L144.694 103.443L143.589 106.98C141.612 113.272 139.655 119.504 138.049 125.902C137.914 126.45 137.818 127.385 137.707 128.444C137.479 130.676 137.192 133.449 136.379 134.257C135.257 134.155 134.145 133.971 133.051 133.704C131.578 133.377 127.059 132.697 121.784 131.906C112.145 130.457 99.976 128.63 99.227 127.886C98.3306 127.002 100.16 122.704 100.61 121.808C103.488 116.044 105.472 108.964 106.99 102.677C107.324 101.263 107.692 99.8652 108.061 98.4653C108.562 96.5498 109.065 94.6342 109.483 92.6868H109.48Z" fill="#FBF81E" stroke="black" stroke-width="11.6425"/>
</svg>
