<svg width="200" height="194" viewBox="0 0 200 194" fill="none" xmlns="http://www.w3.org/2000/svg">
<path d="M149.275 13.7873L20.4233 41.9993C17.7622 42.5819 15.8658 44.9388 15.8661 47.6629L15.8822 187.342C15.8828 192.054 21.2076 194.797 25.0447 192.061L59.686 167.363C60.9611 166.453 62.4072 165.812 63.937 165.477L195.229 136.731C197.891 136.148 199.788 133.79 199.786 131.065L199.76 72.4481C199.758 68.7479 196.337 65.9964 192.723 66.7878L156.308 74.7608L156.312 19.4506C156.312 15.7492 152.891 12.9956 149.275 13.7873Z" fill="#5201BE"/>
<path d="M133.58 0.149086L4.72851 28.3611C2.06742 28.9438 0.170991 31.3006 0.171305 34.0247L0.187394 173.703C0.187937 178.416 5.51274 181.159 9.34992 178.423L43.9912 153.724C45.2663 152.815 46.7124 152.174 48.2422 151.839L179.534 123.093C182.196 122.51 184.093 120.152 184.092 117.427L184.065 58.8099C184.063 55.1098 180.642 52.3582 177.028 53.1496L140.613 61.1226L140.617 5.81246C140.617 2.11102 137.196 -0.642591 133.58 0.149086Z" fill="#FF58FC"/>
<path d="M23.8242 66.9916L23.8132 87.4093L13.1222 89.7501L13.1209 73.2563L19.8401 63.009L19.8622 62.2573L13.1583 54.949L13.124 40.5787L23.7556 38.2509L23.8141 53.3006L26.456 56.2699L26.6936 56.2179L26.7253 37.6007L37.2975 35.2859L37.3318 49.6563L30.7314 59.8775L30.7093 60.6292L37.2945 67.9635L37.3551 84.4443L26.7235 86.7721L26.763 69.8959L24.0617 66.9396L23.8242 66.9916ZM64.5535 44.0695L53.9813 46.3843L53.9264 40.7323L53.6832 40.4744L51.3074 40.9945L51.0161 41.3695L51.038 49.145L51.2812 49.4029L61.1263 49.737L64.5351 54.219L64.5163 72.8956L61.3509 79.1904L43.5326 83.0917L40.3428 78.1884L40.3648 66.9178L50.9964 64.59L51.0404 71.6137L51.2836 71.8716L53.6594 71.3515L53.9507 70.9765L53.9397 61.8294L53.6965 61.5714L43.8514 61.2373L40.3703 56.709L40.3447 39.5358L43.2374 33.9854L61.7685 29.928L64.5183 34.243L64.5535 44.0695ZM85.5116 52.8005L78.2061 54.4L78.2006 64.6089L85.5062 63.0093L85.5249 73.8975L67.5284 77.8378L67.5302 28.6665L85.5267 24.7262L85.5676 34.8626L78.2027 36.4751L78.173 46.0046L85.5379 44.3921L85.5116 52.8005ZM99.3191 59.985L105.08 58.7236L105.099 69.6118L88.4093 73.266L88.411 24.0946L99.3396 21.7018L99.3191 59.985ZM118.982 55.6798L124.743 54.4184L124.762 65.3066L108.072 68.9608L108.074 19.7895L119.002 17.3967L118.982 55.6798Z" fill="#FBFF2B"/>
<path d="M13.1513 97.9171L28.5939 94.536L30.3371 125.524L30.7121 125.815L31.0499 125.368L32.7515 93.6256L48.194 90.2445L48.1923 139.416L38.511 141.536L38.5222 112.591L38.2196 112.346L37.9282 112.721L34.5909 142.394L26.7509 144.11L23.436 115.894L23.2522 115.623L22.842 116.024L22.8308 144.969L13.1496 147.088L13.1513 97.9171ZM51.1586 133.165L51.1605 94.5121L54.0532 88.9616L73.1782 84.7742L76.0468 89.0633L76.0449 127.716L72.8201 134.024L54.3484 138.068L51.1586 133.165ZM62.1289 96.2808L62.0938 126.538L62.4558 126.77L64.7722 126.263L65.1229 125.875L65.0986 95.6306L64.7366 95.3986L62.4202 95.9058L62.1289 96.2808ZM78.926 83.5158L94.5468 80.0956L97.6413 111.286L97.9439 111.531L98.2947 111.143L98.2886 79.2763L106.96 77.3777L106.958 126.549L91.3971 129.956L88.3025 98.766L87.9405 98.534L87.5898 98.922L87.5958 130.788L78.9243 132.687L78.926 83.5158ZM127.939 100.855L120.633 102.455L120.628 112.664L127.933 111.064L127.952 121.952L109.956 125.893L109.957 76.7215L127.954 72.7811L127.995 82.9176L120.63 84.5301L120.6 94.0596L127.965 92.4471L127.939 100.855ZM130.838 72.1496L141.41 69.8348L141.379 79.9249L142.718 92.578L142.876 92.7302L143.015 92.513L144.349 79.2747L144.321 69.1976L155.012 66.8568L155.054 72.4494L148.763 103.703L148.714 117.407L137.192 119.93L137.241 106.226L130.88 77.7422L130.838 72.1496Z" fill="white"/>
<path d="M157.792 83.1047L157.894 66.4029L166.436 64.5326L168.261 66.9834L168.269 80.8108L157.792 83.1047ZM166.34 78.8473L166.336 68.6082L165.379 67.1287L159.858 68.3374L159.852 80.2678L166.34 78.8473ZM160.828 78.9353L160.838 69.242L164.666 68.4039L165.334 69.3344L165.318 71.5759L164.52 72.8485L164.515 73.0185L165.308 73.9427L165.32 77.9516L163.588 78.3309L163.608 74.0828L163.485 74.0041L162.578 74.2026L162.58 78.5515L160.828 78.9353ZM162.579 70.2542L162.588 72.5114L163.475 72.3173L163.614 72.1813L163.613 70.1545L163.486 70.0557L162.579 70.2542Z" fill="white"/>
</svg>
