<svg width="179" height="173" viewBox="0 0 179 173" fill="none" xmlns="http://www.w3.org/2000/svg">
<path d="M133.323 12.4772L18.7886 37.5546C16.4232 38.0725 14.7375 40.1674 14.7378 42.5889L14.7521 166.748C14.7526 170.937 19.4857 173.375 22.8965 170.943L53.6888 148.989C54.8222 148.18 56.1076 147.61 57.4675 147.313L174.172 121.76C176.538 121.242 178.224 119.146 178.223 116.724L178.199 64.6202C178.197 61.3311 175.157 58.8853 171.944 59.5888L139.575 66.6759L139.579 17.5113C139.579 14.2211 136.537 11.7735 133.323 12.4772Z" fill="#8CECFF"/>
<path d="M119.372 0.354586L4.83745 25.4319C2.47204 25.9498 0.786322 28.0448 0.786602 30.4663L0.800903 154.625C0.801386 158.814 5.53454 161.252 8.94536 158.82L39.7376 136.866C40.871 136.058 42.1565 135.488 43.5163 135.19L160.22 109.638C162.587 109.12 164.272 107.024 164.271 104.602L164.248 52.4976C164.246 49.2085 161.205 46.7627 157.992 47.4662L125.624 54.5533L125.627 5.3887C125.628 2.09853 122.586 -0.349123 119.372 0.354586Z" fill="#FF58FC"/>
<path d="M21.7883 59.6612L21.7785 77.8103L12.2754 79.891L12.2743 65.2299L18.2469 56.1212L18.2665 55.453L12.3075 48.9568L12.277 36.1831L21.7273 34.114L21.7793 47.4915L24.1277 50.1309L24.3388 50.0847L24.367 33.536L33.7646 31.4784L33.795 44.2521L27.928 53.3376L27.9084 54.0058L33.7618 60.5252L33.8158 75.1747L24.3655 77.2439L24.4006 62.2429L21.9994 59.615L21.7883 59.6612ZM57.9921 39.2861L48.5946 41.3437L48.5458 36.3197L48.3296 36.0904L46.2178 36.5528L45.9589 36.8861L45.9783 43.7976L46.1945 44.0269L54.9457 44.3238L57.9757 48.3078L57.9591 64.9092L55.1454 70.5046L39.3069 73.9725L36.4715 69.6139L36.491 59.5957L45.9413 57.5265L45.9805 63.7698L46.1967 63.9991L48.3085 63.5367L48.5674 63.2034L48.5576 55.0726L48.3415 54.8433L39.5903 54.5463L36.4959 50.5211L36.4732 35.2561L39.0445 30.3224L55.5165 26.7159L57.9608 30.5514L57.9921 39.2861ZM76.6216 47.0469L70.1278 48.4687L70.1229 57.5433L76.6167 56.1215L76.6334 65.7998L60.6365 69.3024L60.6381 25.5945L76.635 22.092L76.6713 31.1022L70.1247 32.5355L70.0983 41.0062L76.6449 39.5728L76.6216 47.0469ZM88.8948 53.4332L94.016 52.3119L94.0326 61.9903L79.1972 65.2385L79.1988 21.5306L88.9131 19.4037L88.8948 53.4332ZM106.373 49.6063L111.494 48.4851L111.511 58.1635L96.6753 61.4117L96.6769 17.7038L106.391 15.5769L106.373 49.6063Z" fill="#FBFF2B"/>
<path d="M12.3004 87.1507L26.0271 84.1453L27.5767 111.69L27.91 111.949L28.2102 111.552L29.7228 83.3361L43.4495 80.3306L43.4479 124.039L34.8423 125.923L34.8523 100.194L34.5833 99.9762L34.3243 100.31L31.3579 126.686L24.3889 128.211L21.4423 103.13L21.2789 102.889L20.9144 103.246L20.9044 128.974L12.2988 130.859L12.3004 87.1507ZM46.0847 118.482L46.0864 84.1241L48.6576 79.1903L65.6577 75.4682L68.2075 79.2806L68.2058 113.638L65.3393 119.245L48.92 122.84L46.0847 118.482ZM55.836 85.6962L55.8048 112.591L56.1266 112.798L58.1856 112.347L58.4974 112.002L58.4758 85.1182L58.154 84.9121L56.095 85.3629L55.836 85.6962ZM70.7668 74.3495L84.6519 71.3094L87.4026 99.034L87.6716 99.2518L87.9834 98.9069L87.978 70.5812L95.6861 68.8935L95.6845 112.601L81.8522 115.63L79.1015 87.9053L78.7797 87.6991L78.4679 88.044L78.4733 116.37L70.7652 118.057L70.7668 74.3495ZM114.334 89.7626L107.84 91.1844L107.835 100.259L114.329 98.8371L114.345 108.516L98.3486 112.018L98.3502 68.3102L114.347 64.8077L114.383 73.8178L107.837 75.2512L107.81 83.7219L114.357 82.2885L114.334 89.7626ZM116.911 64.2463L126.308 62.1887L126.28 71.1577L127.471 82.4049L127.611 82.5402L127.735 82.3471L128.92 70.5797L128.895 61.6223L138.399 59.5416L138.436 64.5128L132.845 92.2935L132.801 104.475L122.558 106.717L122.602 94.536L116.948 69.2175L116.911 64.2463Z" fill="white"/>
<path d="M140.846 73.8755L140.936 59.0295L148.53 57.367L150.152 59.5455L150.159 71.8365L140.846 73.8755ZM148.444 70.0912L148.441 60.9898L147.59 59.6747L142.683 60.7491L142.678 71.3538L148.444 70.0912ZM143.544 70.1694L143.553 61.5532L146.956 60.8081L147.55 61.6352L147.536 63.6277L146.826 64.7589L146.822 64.91L147.527 65.7315L147.538 69.295L145.998 69.6322L146.016 65.856L145.907 65.7861L145.101 65.9626L145.102 69.8282L143.544 70.1694ZM145.102 62.4528L145.109 64.4593L145.897 64.2867L146.021 64.1658L146.021 62.3642L145.908 62.2764L145.102 62.4528Z" fill="white"/>
</svg>
