<svg width="200" height="194" viewBox="0 0 200 194" fill="none" xmlns="http://www.w3.org/2000/svg">
<path d="M149.276 13.7873L20.4248 41.9993C17.7637 42.5819 15.8673 44.9388 15.8676 47.6629L15.8837 187.342C15.8842 192.054 21.209 194.797 25.0462 192.061L59.6875 167.363C60.9626 166.453 62.4087 165.812 63.9385 165.477L195.231 136.731C197.893 136.148 199.789 133.79 199.788 131.065L199.761 72.4481C199.759 68.7479 196.339 65.9964 192.724 66.7878L156.309 74.7608L156.313 19.4506C156.314 15.7492 152.892 12.9956 149.276 13.7873Z" fill="#FBF81E"/>
<path d="M133.581 0.149086L4.72948 28.3611C2.0684 28.9438 0.171968 31.3006 0.172282 34.0247L0.18837 173.703C0.188913 178.416 5.51372 181.159 9.35089 178.423L43.9921 153.724C45.2673 152.815 46.7134 152.174 48.2432 151.839L179.535 123.093C182.197 122.51 184.094 120.152 184.093 117.427L184.066 58.8099C184.064 55.1098 180.643 52.3582 177.029 53.1496L140.614 61.1226L140.618 5.81246C140.618 2.11102 137.197 -0.642591 133.581 0.149086Z" fill="#5201BE"/>
<path d="M23.8251 66.9916L23.8142 87.4093L13.1232 89.7501L13.1219 73.2563L19.8411 63.009L19.8632 62.2573L13.1592 54.949L13.125 40.5787L23.7566 38.2509L23.8151 53.3006L26.457 56.2699L26.6946 56.2179L26.7263 37.6007L37.2985 35.2859L37.3328 49.6563L30.7324 59.8775L30.7103 60.6292L37.2954 67.9635L37.3561 84.4443L26.7245 86.7721L26.764 69.8959L24.0627 66.9396L23.8251 66.9916ZM64.5545 44.0695L53.9823 46.3843L53.9274 40.7323L53.6842 40.4744L51.3084 40.9945L51.0171 41.3695L51.039 49.145L51.2822 49.4029L61.1273 49.737L64.536 54.219L64.5173 72.8956L61.3519 79.1904L43.5336 83.0917L40.3438 78.1884L40.3658 66.9178L50.9974 64.59L51.0414 71.6137L51.2846 71.8716L53.6604 71.3515L53.9517 70.9765L53.9407 61.8294L53.6975 61.5714L43.8524 61.2373L40.3712 56.709L40.3457 39.5358L43.2384 33.9854L61.7694 29.928L64.5192 34.243L64.5545 44.0695ZM85.5126 52.8005L78.2071 54.4L78.2016 64.6089L85.5071 63.0093L85.5259 73.8975L67.5294 77.8378L67.5312 28.6665L85.5277 24.7262L85.5686 34.8626L78.2037 36.4751L78.1739 46.0046L85.5388 44.3921L85.5126 52.8005ZM99.32 59.985L105.081 58.7236L105.1 69.6118L88.4102 73.266L88.412 24.0946L99.3406 21.7018L99.32 59.985ZM118.983 55.6798L124.744 54.4184L124.763 65.3066L108.073 68.9608L108.075 19.7895L119.003 17.3967L118.983 55.6798Z" fill="white"/>
<path d="M13.1523 97.9171L28.5949 94.536L30.3381 125.524L30.7131 125.815L31.0509 125.368L32.7525 93.6256L48.195 90.2445L48.1932 139.416L38.512 141.536L38.5231 112.591L38.2205 112.346L37.9292 112.721L34.5919 142.394L26.7519 144.11L23.437 115.894L23.2532 115.623L22.843 116.024L22.8318 144.969L13.1505 147.088L13.1523 97.9171ZM51.1596 133.165L51.1615 94.5121L54.0542 88.9616L73.1792 84.7742L76.0478 89.0633L76.0458 127.716L72.8211 134.024L54.3494 138.068L51.1596 133.165ZM62.1298 96.2808L62.0948 126.538L62.4568 126.77L64.7732 126.263L65.1239 125.875L65.0996 95.6306L64.7376 95.3986L62.4212 95.9058L62.1298 96.2808ZM78.927 83.5158L94.5477 80.0956L97.6423 111.286L97.9449 111.531L98.2957 111.143L98.2896 79.2763L106.961 77.3777L106.959 126.549L91.3981 129.956L88.3035 98.766L87.9415 98.534L87.5907 98.922L87.5968 130.788L78.9252 132.687L78.927 83.5158ZM127.94 100.855L120.634 102.455L120.629 112.664L127.934 111.064L127.953 121.952L109.956 125.893L109.958 76.7215L127.955 72.7811L127.996 82.9176L120.631 84.5301L120.601 94.0596L127.966 92.4471L127.94 100.855ZM130.839 72.1496L141.411 69.8348L141.38 79.9249L142.719 92.578L142.876 92.7302L143.016 92.513L144.35 79.2747L144.322 69.1976L155.013 66.8568L155.055 72.4494L148.764 103.703L148.715 117.407L137.193 119.93L137.242 106.226L130.881 77.7422L130.839 72.1496Z" fill="#A6FE5A"/>
<path d="M157.793 83.1047L157.895 66.4029L166.437 64.5326L168.262 66.9834L168.27 80.8108L157.793 83.1047ZM166.341 78.8473L166.337 68.6082L165.38 67.1287L159.859 68.3374L159.853 80.2678L166.341 78.8473ZM160.829 78.9353L160.839 69.242L164.667 68.4039L165.335 69.3344L165.319 71.5759L164.521 72.8485L164.516 73.0185L165.309 73.9427L165.321 77.9516L163.589 78.3309L163.609 74.0828L163.486 74.0041L162.579 74.2026L162.581 78.5515L160.829 78.9353ZM162.58 70.2542L162.589 72.5114L163.476 72.3173L163.615 72.1813L163.614 70.1545L163.487 70.0557L162.58 70.2542Z" fill="#A6FE5A"/>
</svg>
