<svg width="200" height="194" viewBox="0 0 200 194" fill="none" xmlns="http://www.w3.org/2000/svg">
<path d="M149.275 13.7873L20.4228 41.9993C17.7618 42.5819 15.8653 44.9388 15.8656 47.6629L15.8817 187.342C15.8823 192.054 21.2071 194.797 25.0443 192.061L59.6855 167.363C60.9606 166.453 62.4067 165.812 63.9365 165.477L195.229 136.731C197.891 136.148 199.787 133.79 199.786 131.065L199.759 72.4481C199.758 68.7479 196.337 65.9964 192.722 66.7878L156.307 74.7608L156.312 19.4506C156.312 15.7492 152.89 12.9956 149.275 13.7873Z" fill="#5201BE"/>
<path d="M133.579 0.149086L4.72753 28.3611C2.06644 28.9438 0.170014 31.3006 0.170328 34.0247L0.186417 173.703C0.18696 178.416 5.51177 181.159 9.34894 178.423L43.9902 153.724C45.2653 152.815 46.7114 152.174 48.2412 151.839L179.533 123.093C182.195 122.51 184.092 120.152 184.091 117.427L184.064 58.8099C184.062 55.1098 180.641 52.3582 177.027 53.1496L140.612 61.1226L140.616 5.81246C140.616 2.11102 137.195 -0.642591 133.579 0.149086Z" fill="#FF58FC"/>
<path d="M23.8232 66.9916L23.8122 87.4093L13.1212 89.7501L13.1199 73.2563L19.8391 63.009L19.8613 62.2573L13.1573 54.949L13.123 40.5787L23.7546 38.2509L23.8132 53.3006L26.455 56.2699L26.6926 56.2179L26.7243 37.6007L37.2965 35.2859L37.3308 49.6563L30.7304 59.8775L30.7083 60.6292L37.2935 67.9635L37.3542 84.4443L26.7226 86.7721L26.762 69.8959L24.0608 66.9396L23.8232 66.9916ZM64.5526 44.0695L53.9804 46.3843L53.9254 40.7323L53.6822 40.4744L51.3065 40.9945L51.0151 41.3695L51.037 49.145L51.2802 49.4029L61.1253 49.737L64.5341 54.219L64.5154 72.8956L61.35 79.1904L43.5316 83.0917L40.3418 78.1884L40.3638 66.9178L50.9954 64.59L51.0394 71.6137L51.2827 71.8716L53.6584 71.3515L53.9498 70.9765L53.9387 61.8294L53.6955 61.5714L43.8504 61.2373L40.3693 56.709L40.3438 39.5358L43.2364 33.9854L61.7675 29.928L64.5173 34.243L64.5526 44.0695ZM85.5107 52.8005L78.2051 54.4L78.1997 64.6089L85.5052 63.0093L85.524 73.8975L67.5274 77.8378L67.5292 28.6665L85.5257 24.7262L85.5666 34.8626L78.2017 36.4751L78.172 46.0046L85.5369 44.3921L85.5107 52.8005ZM99.3181 59.985L105.079 58.7236L105.098 69.6118L88.4083 73.266L88.4101 24.0946L99.3386 21.7018L99.3181 59.985ZM118.981 55.6798L124.742 54.4184L124.761 65.3066L108.071 68.9608L108.073 19.7895L119.001 17.3967L118.981 55.6798Z" fill="white"/>
<path d="M13.1523 97.9171L28.5949 94.536L30.3381 125.524L30.7131 125.815L31.0509 125.368L32.7525 93.6256L48.195 90.2445L48.1932 139.416L38.512 141.536L38.5231 112.591L38.2205 112.346L37.9292 112.721L34.5919 142.394L26.7519 144.11L23.437 115.894L23.2532 115.623L22.843 116.024L22.8318 144.969L13.1505 147.088L13.1523 97.9171ZM51.1596 133.165L51.1615 94.5121L54.0542 88.9616L73.1792 84.7742L76.0478 89.0633L76.0458 127.716L72.8211 134.024L54.3494 138.068L51.1596 133.165ZM62.1298 96.2808L62.0948 126.538L62.4568 126.77L64.7732 126.263L65.1239 125.875L65.0996 95.6306L64.7376 95.3986L62.4212 95.9058L62.1298 96.2808ZM78.927 83.5158L94.5477 80.0956L97.6423 111.286L97.9449 111.531L98.2957 111.143L98.2896 79.2763L106.961 77.3777L106.959 126.549L91.3981 129.956L88.3035 98.766L87.9415 98.534L87.5907 98.922L87.5968 130.788L78.9252 132.687L78.927 83.5158ZM127.94 100.855L120.634 102.455L120.629 112.664L127.934 111.064L127.953 121.952L109.956 125.893L109.958 76.7215L127.955 72.7811L127.996 82.9176L120.631 84.5301L120.601 94.0596L127.966 92.4471L127.94 100.855ZM130.839 72.1496L141.411 69.8348L141.38 79.9249L142.719 92.578L142.876 92.7302L143.016 92.513L144.35 79.2747L144.322 69.1976L155.013 66.8568L155.055 72.4494L148.764 103.703L148.715 117.407L137.193 119.93L137.242 106.226L130.881 77.7422L130.839 72.1496Z" fill="#A6FE5A"/>
<path d="M157.791 83.1047L157.893 66.4029L166.435 64.5326L168.26 66.9834L168.268 80.8108L157.791 83.1047ZM166.339 78.8473L166.335 68.6082L165.378 67.1287L159.857 68.3374L159.852 80.2678L166.339 78.8473ZM160.827 78.9353L160.837 69.242L164.665 68.4039L165.333 69.3344L165.317 71.5759L164.519 72.8485L164.514 73.0185L165.307 73.9427L165.319 77.9516L163.587 78.3309L163.607 74.0828L163.484 74.0041L162.577 74.2026L162.579 78.5515L160.827 78.9353ZM162.578 70.2542L162.587 72.5114L163.474 72.3173L163.613 72.1813L163.612 70.1545L163.485 70.0557L162.578 70.2542Z" fill="#A6FE5A"/>
</svg>
