<svg width="52" height="32" viewBox="0 0 52 32" fill="none" xmlns="http://www.w3.org/2000/svg">
<path d="M32.6748 3.39844H18.7656V28.3936H32.6748V3.39844Z" fill="#FF5F00"/>
<path d="M19.6481 15.8962C19.6459 13.489 20.1914 11.1128 21.2433 8.94757C22.2952 6.78235 23.8259 4.8848 25.7195 3.3986C23.3745 1.55537 20.5582 0.409095 17.5926 0.0907861C14.6269 -0.227523 11.6315 0.294984 8.94873 1.59858C6.26597 2.90218 4.00409 4.93427 2.42164 7.46259C0.839187 9.99091 0 12.9135 0 15.8962C0 18.8789 0.839187 21.8014 2.42164 24.3297C4.00409 26.8581 6.26597 28.8902 8.94873 30.1938C11.6315 31.4974 14.6269 32.0199 17.5926 31.7015C20.5582 31.3832 23.3745 30.237 25.7195 28.3937C23.8259 26.9075 22.2952 25.01 21.2433 22.8448C20.1914 20.6795 19.646 18.3034 19.6481 15.8962Z" fill="#EB001B"/>
<path d="M51.4375 15.8962C51.4376 18.8788 50.5985 21.8014 49.0162 24.3297C47.4338 26.858 45.172 28.8901 42.4893 30.1937C39.8066 31.4973 36.8112 32.0198 33.8456 31.7015C30.8799 31.3832 28.0637 30.237 25.7188 28.3937C27.6107 26.906 29.1402 25.0082 30.1919 22.8433C31.2437 20.6784 31.7901 18.303 31.7901 15.8962C31.7901 13.4893 31.2437 11.1139 30.1919 8.94904C29.1402 6.78415 27.6107 4.8863 25.7188 3.3986C28.0637 1.55537 30.8799 0.409088 33.8456 0.0907833C36.8112 -0.227521 39.8066 0.294995 42.4893 1.59861C45.172 2.90222 47.4338 4.93432 49.0162 7.46264C50.5985 9.99097 51.4376 12.9135 51.4375 15.8962Z" fill="#F79E1B"/>
<path d="M49.9207 25.742V25.2303H50.1271V25.126H49.6016V25.2303H49.808V25.742H49.9207ZM50.941 25.742V25.125H50.7799L50.5946 25.5494L50.4093 25.125H50.2481V25.742H50.3618V25.2766L50.5356 25.6778H50.6535L50.8273 25.2756V25.742H50.941Z" fill="#F79E1B"/>
</svg>
