<svg width="40" height="40" viewBox="0 0 40 40" fill="none" xmlns="http://www.w3.org/2000/svg">
<g clip-path="url(#clip0_2581_6378)">
<path d="M20.0455 0H19.9545C8.93391 0 0 8.93391 0 19.9545V20.0455C0 31.0661 8.93391 40 19.9545 40H20.0455C31.0661 40 40 31.0661 40 20.0455V19.9545C40 8.93391 31.0661 0 20.0455 0Z" fill="#FBF81E"/>
<g clip-path="url(#clip1_2581_6378)">
<path d="M12.3872 12.3871C12.0478 12.7265 11.8572 13.1867 11.8572 13.6666V14.5714C11.8572 22.0665 17.9336 28.1428 25.4286 28.1428H26.3334C26.8133 28.1428 27.2735 27.9522 27.6129 27.6128C27.9522 27.2735 28.1429 26.8132 28.1429 26.3333V23.3666C28.1429 23.1766 28.0832 22.9915 27.9721 22.8374C27.861 22.6832 27.7043 22.568 27.524 22.508L23.4589 21.1526C23.2523 21.084 23.0279 21.0921 22.8268 21.1755C22.6257 21.2589 22.4615 21.4121 22.3642 21.6068L21.3418 23.6489C19.1265 22.6479 17.3521 20.8736 16.3511 18.6582L18.3932 17.6358C18.5879 17.5385 18.7411 17.3743 18.8245 17.1732C18.9079 16.9721 18.916 16.7477 18.8474 16.5411L17.492 12.476C17.4321 12.2959 17.317 12.1392 17.163 12.0282C17.0091 11.9171 16.8241 11.8573 16.6343 11.8571H13.6667C13.1868 11.8571 12.7265 12.0478 12.3872 12.3871Z" fill="#1E0B37"/>
</g>
</g>
<defs>
<clipPath id="clip0_2581_6378">
<rect width="40" height="40" fill="white"/>
</clipPath>
<clipPath id="clip1_2581_6378">
<rect width="18" height="18" fill="white" transform="translate(11 11)"/>
</clipPath>
</defs>
</svg>
