<svg width="40" height="40" viewBox="0 0 40 40" fill="none" xmlns="http://www.w3.org/2000/svg">
<circle cx="20" cy="20" r="20" fill="#FBF81E"/>
<path d="M20.4217 28.3782C16.2002 28.3782 11.4036 23.3662 11.7872 19.2052C12.1708 15.2335 17.5435 11.5455 21.5248 12.1128C25.0267 12.5854 28.145 16.9356 27.9525 20.3874C27.7614 24.0275 24.1151 28.3782 20.4217 28.3782Z" fill="#FBF81E"/>
<path d="M23.4425 30.5045C23.1542 30.4101 22.7225 30.3157 22.4828 30.2208C22.195 30.0794 21.859 30.0794 20.804 30.1264C19.7967 30.1734 19.2687 30.1264 18.5496 30.0316C14.7118 29.3702 11.6416 26.6277 10.5385 22.8453C10.3465 22.136 10.2988 21.7579 10.2988 20.0557C10.2988 18.2113 10.2507 18.0699 10.011 17.3132C8.62004 13.5778 11.4501 9.6535 15.4795 9.6535C16.2948 9.6535 17.3021 9.89021 17.8778 10.1735C18.2618 10.3627 18.5015 10.4097 19.9883 10.4097C21.3315 10.4097 21.859 10.4572 22.5305 10.6464C25.553 11.4031 27.9989 13.3415 29.2941 16.0366C30.1094 17.6913 30.3977 19.3939 30.2052 21.3319C30.1094 22.3727 30.1094 22.4671 30.3491 23.0815C31.1168 25.3041 30.3972 27.8569 28.5264 29.3702C27.9504 29.8432 26.7996 30.3631 26.08 30.5524C25.36 30.6943 24.2092 30.6943 23.4892 30.505H23.4425V30.5045ZM22.1469 26.8639C23.7303 26.5333 25.1208 25.5873 25.6487 24.453C26.3202 23.0815 26.1281 21.4738 25.217 20.4808C24.4494 19.6298 23.2981 19.1572 20.5639 18.4954C18.7408 18.0699 18.309 17.8806 17.9254 17.4551C17.5895 17.0765 17.5414 16.7933 17.8296 16.3677C18.1175 15.8948 18.837 15.6111 19.7962 15.5641C21.1876 15.4697 21.8109 15.8003 22.6263 17.077C23.25 18.0229 23.8733 18.2592 24.6895 17.8806C25.7445 17.3607 25.6487 15.6585 24.497 14.6656C23.3939 13.7675 22.195 13.3889 20.1798 13.3889C18.0693 13.3889 16.6298 13.8145 15.6706 14.76C14.9029 15.5167 14.7595 15.9422 14.7595 17.124C14.7595 18.3531 14.9034 18.7313 15.7187 19.4409C16.5822 20.2446 17.3017 20.5287 19.8916 21.1431C21.7147 21.5686 22.1945 21.8049 22.6258 22.2779C22.8183 22.5146 22.9141 22.7034 22.9141 23.1289C22.9141 23.6019 22.8659 23.6963 22.4823 24.0749C21.9067 24.6418 21.0433 24.8781 19.9401 24.8316C18.645 24.7367 18.0693 24.3586 17.3979 23.0345C16.9181 22.1365 16.5345 21.8053 15.9107 21.8053C14.5193 21.8053 14.0399 22.9401 14.7595 24.4056C15.3832 25.6826 16.6303 26.5337 18.2132 26.8644C19.1725 27.0537 21.2834 27.0537 22.195 26.8644H22.1469V26.8639Z" fill="#1E0B37"/>
</svg>
