<svg width="41" height="41" viewBox="0 0 41 41" fill="none" xmlns="http://www.w3.org/2000/svg">
<circle cx="20.8691" cy="20.1304" r="20" fill="#FBF81E"/>
<path fill-rule="evenodd" clip-rule="evenodd" d="M9.87723 20.0858C15.5144 17.6297 19.2733 16.0106 21.1542 15.2283C26.5242 12.9947 27.6401 12.6067 28.3674 12.5939C28.5274 12.5911 28.885 12.6307 29.1167 12.8187C29.3123 12.9774 29.3662 13.1919 29.3919 13.3424C29.4177 13.4929 29.4498 13.8357 29.4243 14.1036C29.1333 17.1612 27.8741 24.5813 27.2335 28.0059C26.9624 29.455 26.4287 29.9409 25.912 29.9884C24.789 30.0917 23.9363 29.2463 22.8487 28.5334C21.1468 27.4177 20.1853 26.7233 18.5333 25.6346C16.6242 24.3765 17.8618 23.685 18.9498 22.5549C19.2346 22.2592 24.1822 17.7589 24.278 17.3507C24.29 17.2996 24.3011 17.1093 24.188 17.0088C24.075 16.9083 23.9081 16.9427 23.7877 16.97C23.617 17.0087 20.8981 18.8058 15.6312 22.3611C14.8595 22.891 14.1605 23.1492 13.5342 23.1357C12.8437 23.1208 11.5156 22.7453 10.5283 22.4244C9.31734 22.0307 8.35487 21.8226 8.43868 21.1541C8.48233 20.8059 8.96185 20.4498 9.87723 20.0858Z" fill="#1E0B37"/>
</svg>
