<svg width="64" height="21" viewBox="0 0 64 21" fill="none" xmlns="http://www.w3.org/2000/svg">
<path d="M31.6887 0.357267L27.4129 20.3472H22.2411L26.5173 0.357267H31.6887ZM53.446 13.265L56.1679 5.75838L57.7343 13.265H53.446ZM59.218 20.3472H64L59.8223 0.357267H55.4112C54.4171 0.357267 53.579 0.933661 53.2081 1.82253L45.4484 20.3472H50.8796L51.9578 17.3618H58.5917L59.218 20.3472ZM45.7177 13.8212C45.7402 8.54548 38.4246 8.25324 38.4736 5.89596C38.4894 5.17974 39.1728 4.41676 40.6664 4.22163C41.4069 4.12631 43.4503 4.04898 45.7667 5.11634L46.6727 0.875662C45.4286 0.425607 43.8276 -0.0078125 41.8354 -0.0078125C36.7229 -0.0078125 33.1265 2.70781 33.0977 6.59959C33.0649 9.47752 35.6668 11.0822 37.623 12.0407C39.6399 13.0204 40.3157 13.6485 40.3058 14.5239C40.2919 15.8651 38.6976 16.459 37.213 16.4815C34.6115 16.5219 33.1036 15.7783 31.9018 15.2181L30.963 19.6004C32.1733 20.1543 34.4034 20.6363 36.7125 20.661C42.1478 20.661 45.7015 17.9773 45.7177 13.8212ZM24.2989 0.357267L15.9196 20.3472H10.4538L6.33 4.39383C6.08002 3.41279 5.86196 3.0522 5.10168 2.63767C3.85807 1.96236 1.80517 1.33066 0 0.937708L0.122294 0.357267H8.92197C10.0428 0.357267 11.0513 1.10316 11.308 2.39443L13.4864 13.9628L18.8659 0.357267H24.2989Z" fill="black"/>
</svg>
