<svg width="40" height="40" viewBox="0 0 40 40" fill="none" xmlns="http://www.w3.org/2000/svg">
<g clip-path="url(#clip0_2447_701)">
<path d="M20.0455 0H19.9545C8.93391 0 0 8.93391 0 19.9545V20.0455C0 31.0661 8.93391 40 19.9545 40H20.0455C31.0661 40 40 31.0661 40 20.0455V19.9545C40 8.93391 31.0661 0 20.0455 0Z" fill="#FBF81E"/>
<path d="M30.3626 19.3503C30.3626 24.6916 26.0325 29.0217 20.6912 29.0217C10.5596 29.4822 10.559 31.3244 11.0197 19.3503C11.0197 14.0089 15.3498 9.67883 20.6912 9.67883C26.0325 9.67883 30.3626 14.0089 30.3626 19.3503Z" fill="#1E0B37"/>
<path d="M31.9548 18.5717C31.7005 15.6984 30.3839 13.0329 28.2476 11.067C26.0984 9.08944 23.3103 8 20.3943 8C13.9945 8 8.78741 13.2071 8.78741 19.6069C8.78741 21.7549 9.37987 23.8472 10.5016 25.6699L8 31.2074L16.0095 30.3542C17.4023 30.9247 18.8763 31.2139 20.393 31.2139C20.7919 31.2139 21.2011 31.1932 21.6116 31.1506C21.973 31.1119 22.3383 31.0551 22.6972 30.9828C28.0566 29.8998 31.969 25.1432 32 19.6689V19.6069C32 19.2584 31.9845 18.9099 31.9535 18.5717H31.9548ZM16.318 27.9236L11.8866 28.3961L13.2097 25.4646L12.9451 25.1097C12.9257 25.0838 12.9064 25.058 12.8844 25.0283C11.7356 23.4419 11.1289 21.5677 11.1289 19.6082C11.1289 14.4992 15.2853 10.3428 20.3943 10.3428C25.1807 10.3428 29.2377 14.0771 29.6288 18.8441C29.6494 19.0997 29.6611 19.3565 29.6611 19.6095C29.6611 19.6818 29.6598 19.7528 29.6585 19.829C29.5604 24.1028 26.5747 27.7326 22.3977 28.6568C22.0788 28.7278 21.7523 28.782 21.427 28.8169C21.0888 28.8556 20.7416 28.8749 20.3969 28.8749C19.1694 28.8749 17.9767 28.6374 16.8498 28.1676C16.7246 28.1172 16.6019 28.063 16.4871 28.0075L16.3193 27.9262L16.318 27.9236Z" fill="#1E0B37"/>
<path d="M23.5949 24.9948C18.8796 24.9948 15.0433 21.1572 15.042 16.4419C15.0433 15.2466 16.0166 14.2746 17.2093 14.2746C17.3319 14.2746 17.4532 14.2849 17.5694 14.3056C17.825 14.3482 18.0677 14.4347 18.291 14.565C18.3232 14.5844 18.3452 14.6154 18.3503 14.6515L18.8486 17.792C18.855 17.8295 18.8434 17.8656 18.8189 17.8927C18.544 18.1974 18.1929 18.4168 17.8017 18.5265L17.6133 18.5794L17.6843 18.7614C18.3271 20.3982 19.636 21.7058 21.274 22.3512L21.456 22.4235L21.5089 22.235C21.6187 21.8439 21.8381 21.4928 22.1427 21.2179C22.1647 21.1972 22.1944 21.1869 22.224 21.1869C22.2305 21.1869 22.237 21.1869 22.2447 21.1882L25.3852 21.6864C25.4227 21.6929 25.4537 21.7135 25.473 21.7458C25.6021 21.9691 25.6886 22.2131 25.7325 22.4686C25.7531 22.5822 25.7622 22.7023 25.7622 22.8275C25.7622 24.0215 24.7902 24.9935 23.5949 24.9948Z" fill="#FBF81E"/>
</g>
<defs>
<clipPath id="clip0_2447_701">
<rect width="40" height="40" fill="white"/>
</clipPath>
</defs>
</svg>
